<svg xmlns="http://www.w3.org/2000/svg" width="800" height="470" viewBox="0 0 800 470" preserveAspectRatio="xMidYMid meet"><defs><clipPath id="animationMask_CchOelwf8Y"><rect width="800" height="470" x="0" y="0"></rect></clipPath><clipPath id="jqNKbB1iOF"><path fill="#ffffff" clip-rule="nonzero" d=" M1.47,66.57 C1.47,66.57 1.47,186.205 1.47,186.205 C1.47,223.36200000000002 0.75,260.31 7.005,297.083 C14.154,339.11100000000005 28.460000000000004,379.601 48.148,417.363 C88.462,494.676 152.02599999999998,557.086 231.575,593.17 C311.127,557.086 374.70399999999995,494.676 415.018,417.363 C434.707,379.601 449.13599999999997,339.11100000000005 456.284,297.083 C462.539,260.31 461.994,223.36200000000002 461.994,186.205 C461.994,186.205 461.994,66.57 461.994,66.57 C461.994,66.57 231.73,0.75 231.73,0.75 C231.73,0.75 1.47,66.57 1.47,66.57"></path></clipPath><clipPath id="QnMBj4wiJm"><path fill="#ffffff" clip-rule="nonzero" d=" M1.47,90.57 C1.47,90.57 1.47,210.205 1.47,210.205 C1.47,247.36200000000002 0.75,284.31 7.005,321.083 C14.154,363.11100000000005 28.460000000000004,403.601 48.148,441.363 C88.462,518.676 152.02599999999998,581.086 231.575,617.17 C311.127,581.086 374.70399999999995,518.676 415.018,441.363 C434.707,403.601 449.13599999999997,363.11100000000005 456.284,321.083 C462.539,284.31 461.994,247.36200000000002 461.994,210.205 C461.994,210.205 461.994,90.57 461.994,90.57 C461.994,90.57 231.73,24.75 231.73,24.75 C231.73,24.75 1.47,90.57 1.47,90.57"></path></clipPath></defs><g clip-path="url(#animationMask_CchOelwf8Y)"><rect width="800" height="470" fill="#ffffff" transform="matrix(1,0,0,1,0,0)" opacity="1"></rect><g opacity="1" style="-webkit-user-select: none;"><g transform="matrix(0.4187,0,0,0.4187,291.66055550000004,405.9380153)" style="-webkit-user-select: none;"><path d=" M522.468,9.781 C522.468,15.183 405.509,19.562 261.233,19.562 C116.95799999999997,19.562 0,15.183 0,9.781 C0,4.3790000000000004 116.95799999999997,0 261.233,0 C405.509,0 522.468,4.3790000000000004 522.468,9.781z" style="fill: rgb(237, 237, 237); fill-opacity: 1;"></path></g><g transform="matrix(0.53,0,0,0.53,277.10074000000003,68.65078000000004)" style="-webkit-user-select: none;"><path d=" M0.9699999999999989,66.07 C0.9699999999999989,66.07 0.9699999999999989,185.70499999999998 0.9699999999999989,185.70499999999998 C0.9699999999999989,222.86199999999997 0.25,259.80999999999995 6.5049999999999955,296.58299999999997 C13.653999999999996,338.611 27.960000000000008,379.101 47.647999999999996,416.863 C87.96199999999999,494.176 151.526,556.586 231.07500000000002,592.67 C310.627,556.586 374.204,494.176 414.51800000000003,416.863 C434.207,379.101 448.63599999999997,338.611 455.784,296.58299999999997 C462.039,259.80999999999995 461.493,222.86199999999997 461.493,185.70499999999998 C461.493,185.70499999999998 461.493,66.07 461.493,66.07 C461.493,66.07 231.23000000000002,0.25 231.23000000000002,0.25 C231.23000000000002,0.25 0.9699999999999989,66.07 0.9699999999999989,66.07z" style="fill: rgb(66, 133, 244); fill-opacity: 1;"></path></g><g clip-path="url(#jqNKbB1iOF)" transform="matrix(0.53,0,0,0.53,277.10074000000003,68.65078000000004)" opacity="1" style="-webkit-user-select: none;"><g style="-webkit-user-select: none;"><path d=" M319.741,241.07500000000002 C319.741,241.07500000000002 301.94100000000003,241.07500000000002 301.94100000000003,241.07500000000002 C301.94100000000003,241.07500000000002 159.941,241.07500000000002 159.941,241.07500000000002 C159.941,241.07500000000002 142.227,241.07500000000002 142.227,241.07500000000002 C132.46300000000002,241.07500000000002 123.941,249.42100000000002 123.941,259.18100000000004 C123.941,259.18100000000004 123.941,401.192 123.941,401.192 C123.941,410.956 132.46300000000002,419.07500000000005 142.227,419.07500000000005 C142.227,419.07500000000005 319.741,419.07500000000005 319.741,419.07500000000005 C329.505,419.07500000000005 336.94100000000003,410.956 336.94100000000003,401.192 C336.94100000000003,401.192 336.94100000000003,259.18100000000004 336.94100000000003,259.18100000000004 C336.94100000000003,249.42100000000002 329.505,241.07500000000002 319.741,241.07500000000002z M240.941,337.66400000000004 C240.941,337.66400000000004 240.941,368.07500000000005 240.941,368.07500000000005 C240.941,368.07500000000005 219.941,368.07500000000005 219.941,368.07500000000005 C219.941,368.07500000000005 219.941,337.66400000000004 219.941,337.66400000000004 C208.941,333.244 202.119,322.94800000000004 202.119,310.95000000000005 C202.119,294.922 215.034,281.928 231.062,281.928 C247.091,281.928 259.345,294.922 259.345,310.95000000000005 C259.345,322.94800000000004 252.941,333.244 240.941,337.66400000000004z" style="fill: rgb(255, 255, 255); fill-opacity: 1;"></path><path d=" M259.806,311.19899999999996 C259.806,295.171 246.662,282.17699999999996 230.634,282.17699999999996 C214.606,282.17699999999996 201.694,295.171 201.694,311.19899999999996 C201.694,323.197 208.441,333.493 219.441,337.91299999999995 C219.441,337.91299999999995 219.441,368.32399999999996 219.441,368.32399999999996 C219.441,368.32399999999996 242.441,368.32399999999996 242.441,368.32399999999996 C242.441,368.32399999999996 242.441,337.91299999999995 242.441,337.91299999999995 C250.441,333.493 259.806,323.197 259.806,311.19899999999996z" style="fill: rgb(33, 67, 128); fill-opacity: 0.5;"></path></g></g><g clip-path="url(#QnMBj4wiJm)" transform="matrix(0.53,0,0,0.53,277.10074000000003,55.40078000000004)" opacity="1" style="-webkit-user-select: none;"><g style="-webkit-user-select: none;"><g style="stroke-linecap: butt; stroke-linejoin: miter; fill-opacity: 0; stroke-miterlimit: 4; stroke: rgb(255, 255, 255); stroke-opacity: 1; stroke-width: 29;"><path d=" M174.61700000000002,299.826 C174.61700000000002,299.826 174.441,204.94400000000002 174.441,204.94400000000002 C174.441,173.87800000000001 199.685,148.60800000000003 230.43800000000002,148.60800000000003 C261.19100000000003,148.60800000000003 286.44100000000003,173.87800000000001 286.44100000000003,204.94400000000002 C286.44100000000003,204.94400000000002 286.5,246.32600000000002 286.5,246.32600000000002"></path></g></g></g></g></g></svg>